# xmcd
#
# Track frame offsets:
#	150
#	10287
#	21375
#	34302
#	46040
#	59250
#	73670
#	87005
#	99057
#	112752
#	125482
#	138960
#	152397
#	169297
#	180800
#	193625
#	204672
#	216935
#	229827
#	242922
#	255795
#	270957
#	282725
#	299697
#	313070
#
# Disc length: 4488 seconds
#
# Revision: 0
# Processed by: cddbd v1.5.1PL2 Copyright (c) Steve Scherf et al.
# Submitted via: dBpowerAMP V4.0
#
DISCID=5b118619
DTITLE=Conway Twitty - Legendary Country Singers
DYEAR=1995
DGENRE=Country
TTITLE0=It's Only Make Believe
TTITLE1=Hello Darlin'
TTITLE2=Next In Line
TTITLE3=Darling, You Know I Wouldn't Lie
TTITLE4=The Image Of Me
TTITLE5=Fifteen Years Ago
TTITLE6=How Much More Can She Stand
TTITLE7=After The Fire Is Gone  with Loretta Lynn
TTITLE8=You've Never Been This Far Before
TTITLE9=I've Already Loved You In My Mind
TTITLE10=There's A Honky Tonk Angel ( Who'll Take Me Back In )
TTITLE11=After All The Good Is Gone
TTITLE12=Don't Take It Away
TTITLE13=Louisiana Woman, Mississippi Man  with Loretta Lynn
TTITLE14=I See The Want To In Your Eyes
TTITLE15=I Can't Believe She Gives It All To Me
TTITLE16=Linda On My Mind
TTITLE17=I May Never Get To Heaven
TTITLE18=Happy Birthday Darlin'
TTITLE19=Tight Fittin' Jeans
TTITLE20=I'd Love To Lay You Down
TTITLE21=Don't Call Him A Cowboy
TTITLE22=She's Got A Single Thing In Mind
TTITLE23=Slow Hand
TTITLE24=Rainy Night In Georgia  with Sam Moore
EXTD=
EXTT0=
EXTT1=
EXTT2=
EXTT3=
EXTT4=
EXTT5=
EXTT6=
EXTT7=
EXTT8=
EXTT9=
EXTT10=
EXTT11=
EXTT12=
EXTT13=
EXTT14=
EXTT15=
EXTT16=
EXTT17=
EXTT18=
EXTT19=
EXTT20=
EXTT21=
EXTT22=
EXTT23=
EXTT24=
PLAYORDER=
